<?xml version="1.0" encoding="UTF-8" standalone="no"?>
<!DOCTYPE svg PUBLIC "-//W3C//DTD SVG 1.1//EN" "http://www.w3.org/Graphics/SVG/1.1/DTD/svg11.dtd">
<svg width="500" height="500" viewBox="0 0 500 500" version="1.1" xmlns="http://www.w3.org/2000/svg">
<rect x="0" y="0" width="500" height="500" style="fill:white;stroke:purple;stroke-width:4"/>
<circle cx="250.0" cy="250.0" r="112.45" fill="rgb(0,255,0)" />
<circle cx="24.875105" cy="2.4958355" r="24.0" fill="rgb(0,255,0)" />
<circle cx="2.4750834" cy="0.024916781" r="22.5" fill="rgb(0,255,0)" />
<circle cx="0.24627182" cy="0.00024875274" r="20.45" fill="rgb(0,255,0)" />
<circle cx="0.02450415" cy="0.0000024833837" r="20.0" fill="rgb(0,255,0)" />
<circle cx="0.0024381732" cy="0.00000002479247" r="12.65" fill="rgb(0,255,0)" />
<circle cx="0.00024259926" cy="0.0000000002475117" r="11.75" fill="rgb(0,255,0)" />
<circle cx="0.000024138728" cy="0.0000000000024709941" r="11.2" fill="rgb(0,255,0)" />
<circle cx="0.0000024018136" cy="0.00000000000002466878" r="11.05" fill="rgb(0,255,0)" />
<circle cx="0.00000023898147" cy="0.00000000000000024627687" r="10.5" fill="rgb(0,255,0)" />
<circle cx="0.000000023778757" cy="0.0000000000000000024586662" r="9.65" fill="rgb(0,255,0)" />
<circle cx="0.0000000023659963" cy="0.000000000000000000024545706" r="8.0" fill="rgb(0,255,0)" />
<circle cx="0.00000000023541763" cy="0.0000000000000000000002450482" r="7.9" fill="rgb(0,255,0)" />
<circle cx="0.000000000023424153" cy="0.0000000000000000000000024464" r="6.85" fill="rgb(0,255,0)" />
<circle cx="0.000000000002330713" cy="0.000000000000000000000000024423249" r="6.45" fill="rgb(0,255,0)" />
<circle cx="0.00000000000023190694" cy="0.00000000000000000000000000024382564" r="5.95" fill="rgb(0,255,0)" />
<circle cx="0.000000000000023074838" cy="0.0000000000000000000000000000024341949" r="5.55" fill="rgb(0,255,0)" />
<circle cx="0.000000000000002295956" cy="0.0000000000000000000000000000000243014" r="5.35" fill="rgb(0,255,0)" />
<circle cx="0.0000000000000002284486" cy="0.0000000000000000000000000000000002426092" r="5.05" fill="rgb(0,255,0)" />
<circle cx="0.000000000000000022730731" cy="0.0000000000000000000000000000000000024220507" r="4.6" fill="rgb(0,255,0)" />
<circle cx="0.0000000000000000022617171" cy="0.000000000000000000000000000000000000024180162" r="4.6" fill="rgb(0,255,0)" />
<circle cx="0.00000000000000000022504183" cy="0.000000000000000000000000000000000000000241399" r="4.15" fill="rgb(0,255,0)" />
<circle cx="0.000000000000000000022391757" cy="0.00000000000000000000000000000000000000000241" r="3.75" fill="rgb(0,255,0)" />
<circle cx="0.0000000000000000000022279892" cy="0.000000000000000000000000000000000000000000024" r="3.15" fill="rgb(0,255,0)" />
<circle cx="0.00000000000000000000022168587" cy="0.0" r="3.1" fill="rgb(0,255,0)" />
<circle cx="0.000000000000000000000022057837" cy="0.0" r="3.0" fill="rgb(0,255,0)" />
<circle cx="0.0000000000000000000000021947639" cy="0.0" r="3.0" fill="rgb(0,255,0)" />
<circle cx="0.00000000000000000000000021837992" cy="0.0" r="2.7" fill="rgb(0,255,0)" />
<circle cx="0.000000000000000000000000021728893" cy="0.0" r="2.45" fill="rgb(0,255,0)" />
<circle cx="0.0000000000000000000000000021620341" cy="0.0" r="2.35" fill="rgb(0,255,0)" />
<circle cx="0.00000000000000000000000000021512332" cy="0.0" r="2.15" fill="rgb(0,255,0)" />
<circle cx="0.00000000000000000000000000002140486" cy="0.0" r="2.0" fill="rgb(0,255,0)" />
<circle cx="0.0000000000000000000000000000021297926" cy="0.0" r="1.95" fill="rgb(0,255,0)" />
<circle cx="0.00000000000000000000000000000021191525" cy="0.0" r="1.8" fill="rgb(0,255,0)" />
<circle cx="0.000000000000000000000000000000021085656" cy="0.0" r="1.75" fill="rgb(0,255,0)" />
<circle cx="0.0000000000000000000000000000000020980315" cy="0.0" r="1.7" fill="rgb(0,255,0)" />
<circle cx="0.000000000000000000000000000000000208755" cy="0.0" r="1.7" fill="rgb(0,255,0)" />
<circle cx="0.00000000000000000000000000000000002077121" cy="0.0" r="1.7" fill="rgb(0,255,0)" />
<circle cx="0.0000000000000000000000000000000000020667442" cy="0.0" r="1.6" fill="rgb(0,255,0)" />
<circle cx="0.00000000000000000000000000000000000020564192" cy="0.0" r="1.55" fill="rgb(0,255,0)" />
<circle cx="0.000000000000000000000000000000000000020461457" cy="0.0" r="1.55" fill="rgb(0,255,0)" />
<circle cx="0.000000000000000000000000000000000000002035923" cy="0.0" r="1.5" fill="rgb(0,255,0)" />
<circle cx="0.000000000000000000000000000000000000000202575" cy="0.0" r="1.45" fill="rgb(0,255,0)" />
<circle cx="0.000000000000000000000000000000000000000020156" cy="0.0" r="1.45" fill="rgb(0,255,0)" />
<circle cx="0.000000000000000000000000000000000000000002005" cy="0.0" r="1.4" fill="rgb(0,255,0)" />
<circle cx="0.000000000000000000000000000000000000000000199" cy="0.0" r="1.35" fill="rgb(0,255,0)" />
<circle cx="0.00000000000000000000000000000000000000000002" cy="0.0" r="1.25" fill="rgb(0,255,0)" />
<circle cx="0.000000000000000000000000000000000000000000001" cy="0.0" r="1.15" fill="rgb(0,255,0)" />
<circle cx="0.0" cy="0.0" r="1.15" fill="rgb(0,255,0)" />
<circle cx="0.0" cy="0.0" r="1.15" fill="rgb(0,255,0)" />
<circle cx="0.0" cy="0.0" r="1.15" fill="rgb(0,255,0)" />
<circle cx="0.0" cy="0.0" r="1.15" fill="rgb(0,255,0)" />
<circle cx="0.0" cy="0.0" r="1.1" fill="rgb(0,255,0)" />
<circle cx="0.0" cy="0.0" r="1.05" fill="rgb(0,255,0)" />
<circle cx="0.0" cy="0.0" r="1.05" fill="rgb(0,255,0)" />
<circle cx="0.0" cy="0.0" r="1.05" fill="rgb(0,255,0)" />
<circle cx="0.0" cy="0.0" r="1.05" fill="rgb(0,255,0)" />
<circle cx="0.0" cy="0.0" r="1.0" fill="rgb(0,255,0)" />
<circle cx="0.0" cy="0.0" r="1.0" fill="rgb(0,255,0)" />
<circle cx="0.0" cy="0.0" r="0.9" fill="rgb(0,255,0)" />
<circle cx="0.0" cy="0.0" r="0.85" fill="rgb(0,255,0)" />
<circle cx="0.0" cy="0.0" r="0.85" fill="rgb(0,255,0)" />
<circle cx="0.0" cy="0.0" r="0.8" fill="rgb(0,255,0)" />
<circle cx="0.0" cy="0.0" r="0.8" fill="rgb(0,255,0)" />
<circle cx="0.0" cy="0.0" r="0.8" fill="rgb(0,255,0)" />
<circle cx="0.0" cy="0.0" r="0.8" fill="rgb(0,255,0)" />
<circle cx="0.0" cy="0.0" r="0.75" fill="rgb(0,255,0)" />
<circle cx="0.0" cy="0.0" r="0.75" fill="rgb(0,255,0)" />
<circle cx="0.0" cy="0.0" r="0.7" fill="rgb(0,255,0)" />
<circle cx="0.0" cy="0.0" r="0.65" fill="rgb(0,255,0)" />
<circle cx="0.0" cy="0.0" r="0.65" fill="rgb(0,255,0)" />
<circle cx="0.0" cy="0.0" r="0.65" fill="rgb(0,255,0)" />
<circle cx="0.0" cy="0.0" r="0.65" fill="rgb(0,255,0)" />
<circle cx="0.0" cy="0.0" r="0.65" fill="rgb(0,255,0)" />
<circle cx="0.0" cy="0.0" r="0.6" fill="rgb(0,255,0)" />
<circle cx="0.0" cy="0.0" r="0.6" fill="rgb(0,255,0)" />
<circle cx="0.0" cy="0.0" r="0.6" fill="rgb(0,255,0)" />
<circle cx="0.0" cy="0.0" r="0.6" fill="rgb(0,255,0)" />
<circle cx="0.0" cy="0.0" r="0.6" fill="rgb(0,255,0)" />
<circle cx="0.0" cy="0.0" r="0.55" fill="rgb(0,255,0)" />
<circle cx="0.0" cy="0.0" r="0.55" fill="rgb(0,255,0)" />
<circle cx="0.0" cy="0.0" r="0.55" fill="rgb(0,255,0)" />
<circle cx="0.0" cy="0.0" r="0.55" fill="rgb(0,255,0)" />
<circle cx="0.0" cy="0.0" r="0.55" fill="rgb(0,255,0)" />
<circle cx="0.0" cy="0.0" r="0.55" fill="rgb(0,255,0)" />
<circle cx="0.0" cy="0.0" r="0.55" fill="rgb(0,255,0)" />
<circle cx="0.0" cy="0.0" r="0.5" fill="rgb(0,255,0)" />
<circle cx="0.0" cy="0.0" r="0.5" fill="rgb(0,255,0)" />
<circle cx="0.0" cy="0.0" r="0.45" fill="rgb(0,255,0)" />
<circle cx="0.0" cy="0.0" r="0.45" fill="rgb(0,255,0)" />
<circle cx="0.0" cy="0.0" r="0.45" fill="rgb(0,255,0)" />
<circle cx="0.0" cy="0.0" r="0.4" fill="rgb(0,255,0)" />
<circle cx="0.0" cy="0.0" r="0.4" fill="rgb(0,255,0)" />
<circle cx="0.0" cy="0.0" r="0.4" fill="rgb(0,255,0)" />
<circle cx="0.0" cy="0.0" r="0.4" fill="rgb(0,255,0)" />
<circle cx="0.0" cy="0.0" r="0.4" fill="rgb(0,255,0)" />
<circle cx="0.0" cy="0.0" r="0.4" fill="rgb(0,255,0)" />
<circle cx="0.0" cy="0.0" r="0.35" fill="rgb(0,255,0)" />
<circle cx="0.0" cy="0.0" r="0.35" fill="rgb(0,255,0)" />
<circle cx="0.0" cy="0.0" r="0.35" fill="rgb(0,255,0)" />
<circle cx="0.0" cy="0.0" r="0.35" fill="rgb(0,255,0)" />
<circle cx="0.0" cy="0.0" r="0.35" fill="rgb(0,255,0)" />
<circle cx="0.0" cy="0.0" r="0.3" fill="rgb(0,255,0)" />
<circle cx="0.0" cy="0.0" r="0.3" fill="rgb(0,255,0)" />
<circle cx="0.0" cy="0.0" r="0.3" fill="rgb(0,255,0)" />
<circle cx="0.0" cy="0.0" r="0.3" fill="rgb(0,255,0)" />
<circle cx="0.0" cy="0.0" r="0.25" fill="rgb(0,255,0)" />
<circle cx="0.0" cy="0.0" r="0.25" fill="rgb(0,255,0)" />
<circle cx="0.0" cy="0.0" r="0.25" fill="rgb(0,255,0)" />
<circle cx="0.0" cy="0.0" r="0.25" fill="rgb(0,255,0)" />
<circle cx="0.0" cy="0.0" r="0.25" fill="rgb(0,255,0)" />
<circle cx="0.0" cy="0.0" r="0.25" fill="rgb(0,255,0)" />
<circle cx="0.0" cy="0.0" r="0.25" fill="rgb(0,255,0)" />
<circle cx="0.0" cy="0.0" r="0.25" fill="rgb(0,255,0)" />
<circle cx="0.0" cy="0.0" r="0.2" fill="rgb(0,255,0)" />
<circle cx="0.0" cy="0.0" r="0.2" fill="rgb(0,255,0)" />
<circle cx="0.0" cy="0.0" r="0.2" fill="rgb(0,255,0)" />
<circle cx="0.0" cy="0.0" r="0.2" fill="rgb(0,255,0)" />
<circle cx="0.0" cy="0.0" r="0.2" fill="rgb(0,255,0)" />
<circle cx="0.0" cy="0.0" r="0.2" fill="rgb(0,255,0)" />
<circle cx="0.0" cy="0.0" r="0.15" fill="rgb(0,255,0)" />
<circle cx="0.0" cy="0.0" r="0.15" fill="rgb(0,255,0)" />
<circle cx="0.0" cy="0.0" r="0.15" fill="rgb(0,255,0)" />
<circle cx="0.0" cy="0.0" r="0.15" fill="rgb(0,255,0)" />
<circle cx="0.0" cy="0.0" r="0.1" fill="rgb(0,255,0)" />
<circle cx="0.0" cy="0.0" r="0.1" fill="rgb(0,255,0)" />
<circle cx="0.0" cy="0.0" r="0.05" fill="rgb(0,255,0)" />
</svg>
