<?xml version="1.0" encoding="UTF-8" standalone="no"?>
<!DOCTYPE svg PUBLIC "-//W3C//DTD SVG 1.1//EN" "http://www.w3.org/Graphics/SVG/1.1/DTD/svg11.dtd">
<svg width="500" height="500" viewBox="0 0 500 500" version="1.1" xmlns="http://www.w3.org/2000/svg">
<rect x="0" y="0" width="500" height="500" style="fill:white;stroke:purple;stroke-width:4"/>
<circle cx="250.0" cy="250.0" r="115.45" fill="rgb(221,150,165)" />
<circle cx="250.0" cy="250.0" r="27.0" fill="rgb(94,191,70)" />
<circle cx="250.0" cy="250.0" r="25.5" fill="rgb(18,246,202)" />
<circle cx="250.0" cy="250.0" r="23.45" fill="rgb(124,104,76)" />
<circle cx="250.0" cy="250.0" r="23.0" fill="rgb(92,123,174)" />
<circle cx="250.0" cy="250.0" r="15.65" fill="rgb(59,136,192)" />
<circle cx="250.0" cy="250.0" r="14.75" fill="rgb(189,116,201)" />
<circle cx="250.0" cy="250.0" r="14.2" fill="rgb(131,105,105)" />
<circle cx="250.0" cy="250.0" r="14.05" fill="rgb(218,101,174)" />
<circle cx="250.0" cy="250.0" r="13.5" fill="rgb(8,203,195)" />
<circle cx="250.0" cy="250.0" r="12.65" fill="rgb(171,74,117)" />
<circle cx="250.0" cy="250.0" r="11.0" fill="rgb(199,101,63)" />
<circle cx="250.0" cy="250.0" r="10.9" fill="rgb(255,91,138)" />
<circle cx="250.0" cy="250.0" r="9.85" fill="rgb(54,96,209)" />
<circle cx="250.0" cy="250.0" r="9.45" fill="rgb(170,142,188)" />
<circle cx="250.0" cy="250.0" r="8.95" fill="rgb(86,86,55)" />
<circle cx="250.0" cy="250.0" r="8.55" fill="rgb(149,117,218)" />
<circle cx="250.0" cy="250.0" r="8.35" fill="rgb(134,198,157)" />
<circle cx="250.0" cy="250.0" r="8.05" fill="rgb(233,238,74)" />
<circle cx="250.0" cy="250.0" r="7.6" fill="rgb(48,152,35)" />
<circle cx="250.0" cy="250.0" r="7.6" fill="rgb(135,56,91)" />
<circle cx="250.0" cy="250.0" r="7.15" fill="rgb(18,151,173)" />
<circle cx="250.0" cy="250.0" r="6.75" fill="rgb(83,140,2)" />
<circle cx="250.0" cy="250.0" r="6.15" fill="rgb(20,160,29)" />
<circle cx="250.0" cy="250.0" r="6.1" fill="rgb(135,87,241)" />
<circle cx="250.0" cy="250.0" r="6.0" fill="rgb(235,193,92)" />
<circle cx="250.0" cy="250.0" r="6.0" fill="rgb(57,59,97)" />
<circle cx="250.0" cy="250.0" r="5.7" fill="rgb(12,8,92)" />
<circle cx="250.0" cy="250.0" r="5.45" fill="rgb(235,87,90)" />
<circle cx="250.0" cy="250.0" r="5.35" fill="rgb(177,196,21)" />
<circle cx="250.0" cy="250.0" r="5.15" fill="rgb(224,190,216)" />
<circle cx="250.0" cy="250.0" r="5.0" fill="rgb(71,191,192)" />
<circle cx="250.0" cy="250.0" r="4.95" fill="rgb(105,102,201)" />
<circle cx="250.0" cy="250.0" r="4.8" fill="rgb(111,52,111)" />
<circle cx="250.0" cy="250.0" r="4.75" fill="rgb(244,14,60)" />
<circle cx="250.0" cy="250.0" r="4.7" fill="rgb(180,233,82)" />
<circle cx="250.0" cy="250.0" r="4.7" fill="rgb(107,86,112)" />
<circle cx="250.0" cy="250.0" r="4.7" fill="rgb(3,87,151)" />
<circle cx="250.0" cy="250.0" r="4.6" fill="rgb(231,58,250)" />
<circle cx="250.0" cy="250.0" r="4.55" fill="rgb(143,139,13)" />
<circle cx="250.0" cy="250.0" r="4.55" fill="rgb(21,44,12)" />
<circle cx="250.0" cy="250.0" r="4.5" fill="rgb(235,14,209)" />
<circle cx="250.0" cy="250.0" r="4.45" fill="rgb(206,154,242)" />
<circle cx="250.0" cy="250.0" r="4.45" fill="rgb(103,193,76)" />
<circle cx="250.0" cy="250.0" r="4.4" fill="rgb(95,250,64)" />
<circle cx="250.0" cy="250.0" r="4.35" fill="rgb(151,207,221)" />
<circle cx="250.0" cy="250.0" r="4.25" fill="rgb(105,146,19)" />
<circle cx="250.0" cy="250.0" r="4.15" fill="rgb(5,151,228)" />
<circle cx="250.0" cy="250.0" r="4.15" fill="rgb(10,219,14)" />
<circle cx="250.0" cy="250.0" r="4.15" fill="rgb(152,90,205)" />
<circle cx="250.0" cy="250.0" r="4.15" fill="rgb(185,213,43)" />
<circle cx="250.0" cy="250.0" r="4.15" fill="rgb(6,95,129)" />
<circle cx="250.0" cy="250.0" r="4.1" fill="rgb(217,61,244)" />
<circle cx="250.0" cy="250.0" r="4.05" fill="rgb(145,206,50)" />
<circle cx="250.0" cy="250.0" r="4.05" fill="rgb(1,126,7)" />
<circle cx="250.0" cy="250.0" r="4.05" fill="rgb(134,237,132)" />
<circle cx="250.0" cy="250.0" r="4.05" fill="rgb(62,81,240)" />
<circle cx="250.0" cy="250.0" r="4.0" fill="rgb(58,140,191)" />
<circle cx="250.0" cy="250.0" r="4.0" fill="rgb(27,127,181)" />
<circle cx="250.0" cy="250.0" r="3.9" fill="rgb(220,85,53)" />
<circle cx="250.0" cy="250.0" r="3.85" fill="rgb(178,213,152)" />
<circle cx="250.0" cy="250.0" r="3.85" fill="rgb(227,27,6)" />
<circle cx="250.0" cy="250.0" r="3.8" fill="rgb(71,103,22)" />
<circle cx="250.0" cy="250.0" r="3.8" fill="rgb(2,116,233)" />
<circle cx="250.0" cy="250.0" r="3.8" fill="rgb(159,231,198)" />
<circle cx="250.0" cy="250.0" r="3.8" fill="rgb(162,233,109)" />
<circle cx="250.0" cy="250.0" r="3.75" fill="rgb(121,107,188)" />
<circle cx="250.0" cy="250.0" r="3.75" fill="rgb(85,4,58)" />
<circle cx="250.0" cy="250.0" r="3.7" fill="rgb(82,160,192)" />
<circle cx="250.0" cy="250.0" r="3.65" fill="rgb(55,170,96)" />
<circle cx="250.0" cy="250.0" r="3.65" fill="rgb(239,255,225)" />
<circle cx="250.0" cy="250.0" r="3.65" fill="rgb(182,122,239)" />
<circle cx="250.0" cy="250.0" r="3.65" fill="rgb(124,127,198)" />
<circle cx="250.0" cy="250.0" r="3.65" fill="rgb(246,8,155)" />
<circle cx="250.0" cy="250.0" r="3.6" fill="rgb(131,13,41)" />
<circle cx="250.0" cy="250.0" r="3.6" fill="rgb(155,226,255)" />
<circle cx="250.0" cy="250.0" r="3.6" fill="rgb(90,203,37)" />
<circle cx="250.0" cy="250.0" r="3.6" fill="rgb(54,197,75)" />
<circle cx="250.0" cy="250.0" r="3.6" fill="rgb(5,198,143)" />
<circle cx="250.0" cy="250.0" r="3.55" fill="rgb(73,37,60)" />
<circle cx="250.0" cy="250.0" r="3.55" fill="rgb(28,10,27)" />
<circle cx="250.0" cy="250.0" r="3.55" fill="rgb(51,123,223)" />
<circle cx="250.0" cy="250.0" r="3.55" fill="rgb(88,27,239)" />
<circle cx="250.0" cy="250.0" r="3.55" fill="rgb(61,172,62)" />
<circle cx="250.0" cy="250.0" r="3.55" fill="rgb(101,2,141)" />
<circle cx="250.0" cy="250.0" r="3.55" fill="rgb(76,234,109)" />
<circle cx="250.0" cy="250.0" r="3.5" fill="rgb(228,182,28)" />
<circle cx="250.0" cy="250.0" r="3.5" fill="rgb(205,181,113)" />
<circle cx="250.0" cy="250.0" r="3.45" fill="rgb(241,121,19)" />
<circle cx="250.0" cy="250.0" r="3.45" fill="rgb(93,150,169)" />
<circle cx="250.0" cy="250.0" r="3.45" fill="rgb(63,252,11)" />
<circle cx="250.0" cy="250.0" r="3.4" fill="rgb(223,134,125)" />
<circle cx="250.0" cy="250.0" r="3.4" fill="rgb(171,28,118)" />
<circle cx="250.0" cy="250.0" r="3.4" fill="rgb(154,140,31)" />
<circle cx="250.0" cy="250.0" r="3.4" fill="rgb(49,46,145)" />
<circle cx="250.0" cy="250.0" r="3.4" fill="rgb(212,3,28)" />
<circle cx="250.0" cy="250.0" r="3.4" fill="rgb(102,240,225)" />
<circle cx="250.0" cy="250.0" r="3.35" fill="rgb(17,251,160)" />
<circle cx="250.0" cy="250.0" r="3.35" fill="rgb(50,96,64)" />
<circle cx="250.0" cy="250.0" r="3.35" fill="rgb(138,166,81)" />
<circle cx="250.0" cy="250.0" r="3.35" fill="rgb(59,97,100)" />
<circle cx="250.0" cy="250.0" r="3.35" fill="rgb(40,226,85)" />
<circle cx="250.0" cy="250.0" r="3.3" fill="rgb(19,203,33)" />
<circle cx="250.0" cy="250.0" r="3.3" fill="rgb(92,212,236)" />
<circle cx="250.0" cy="250.0" r="3.3" fill="rgb(73,223,42)" />
<circle cx="250.0" cy="250.0" r="3.3" fill="rgb(61,192,187)" />
<circle cx="250.0" cy="250.0" r="3.25" fill="rgb(133,22,98)" />
<circle cx="250.0" cy="250.0" r="3.25" fill="rgb(107,173,85)" />
<circle cx="250.0" cy="250.0" r="3.25" fill="rgb(92,113,188)" />
<circle cx="250.0" cy="250.0" r="3.25" fill="rgb(16,39,128)" />
<circle cx="250.0" cy="250.0" r="3.25" fill="rgb(239,12,44)" />
<circle cx="250.0" cy="250.0" r="3.25" fill="rgb(18,23,232)" />
<circle cx="250.0" cy="250.0" r="3.25" fill="rgb(254,0,172)" />
<circle cx="250.0" cy="250.0" r="3.25" fill="rgb(127,52,247)" />
<circle cx="250.0" cy="250.0" r="3.2" fill="rgb(126,46,124)" />
<circle cx="250.0" cy="250.0" r="3.2" fill="rgb(185,107,78)" />
<circle cx="250.0" cy="250.0" r="3.2" fill="rgb(83,184,193)" />
<circle cx="250.0" cy="250.0" r="3.2" fill="rgb(197,26,70)" />
<circle cx="250.0" cy="250.0" r="3.2" fill="rgb(243,215,245)" />
<circle cx="250.0" cy="250.0" r="3.2" fill="rgb(130,40,34)" />
<circle cx="250.0" cy="250.0" r="3.15" fill="rgb(37,56,98)" />
<circle cx="250.0" cy="250.0" r="3.15" fill="rgb(37,179,149)" />
<circle cx="250.0" cy="250.0" r="3.15" fill="rgb(151,129,181)" />
<circle cx="250.0" cy="250.0" r="3.15" fill="rgb(251,126,151)" />
<circle cx="250.0" cy="250.0" r="3.1" fill="rgb(192,182,81)" />
<circle cx="250.0" cy="250.0" r="3.1" fill="rgb(43,98,212)" />
<circle cx="250.0" cy="250.0" r="3.05" fill="rgb(232,245,162)" />
</svg>
