<?xml version="1.0" encoding="UTF-8" standalone="no"?>
<!DOCTYPE svg PUBLIC "-//W3C//DTD SVG 1.1//EN" "http://www.w3.org/Graphics/SVG/1.1/DTD/svg11.dtd">
<svg width="500" height="500" viewBox="0 0 500 500" version="1.1" xmlns="http://www.w3.org/2000/svg">
<rect x="0" y="0" width="500" height="500" style="fill:white;stroke:purple;stroke-width:4"/>
<circle cx="250.0" cy="250.0" r="115.45" fill="rgb(0,255,0)" />
<circle cx="255.33897" cy="394.45886" r="27.0" fill="rgb(0,255,0)" />
<circle cx="208.42662" cy="262.45844" r="25.5" fill="rgb(0,255,0)" />
<circle cx="121.93857" cy="248.51302" r="23.45" fill="rgb(0,255,0)" />
<circle cx="207.51021" cy="236.44362" r="23.0" fill="rgb(0,255,0)" />
<circle cx="170.43213" cy="210.593" r="15.65" fill="rgb(0,255,0)" />
<circle cx="212.92192" cy="224.14938" r="14.75" fill="rgb(0,255,0)" />
<circle cx="184.77045" cy="188.02277" r="14.2" fill="rgb(0,255,0)" />
<circle cx="221.84853" cy="213.87338" r="14.05" fill="rgb(0,255,0)" />
<circle cx="205.41803" cy="170.47987" r="13.5" fill="rgb(0,255,0)" />
<circle cx="233.56952" cy="206.60649" r="12.65" fill="rgb(0,255,0)" />
<circle cx="230.65935" cy="159.6967" r="11.0" fill="rgb(0,255,0)" />
<circle cx="247.08983" cy="203.09021" r="10.9" fill="rgb(0,255,0)" />
<circle cx="258.31387" cy="156.83247" r="9.85" fill="rgb(0,255,0)" />
<circle cx="261.22403" cy="203.74226" r="9.45" fill="rgb(0,255,0)" />
<circle cx="285.92432" cy="162.35225" r="8.95" fill="rgb(0,255,0)" />
<circle cx="274.70026" cy="208.60999" r="8.55" fill="rgb(0,255,0)" />
<circle cx="310.97488" cy="175.96664" r="8.35" fill="rgb(0,255,0)" />
<circle cx="286.27463" cy="217.35666" r="8.05" fill="rgb(0,255,0)" />
<circle cx="331.12054" cy="196.63951" r="7.6" fill="rgb(0,255,0)" />
<circle cx="294.84592" cy="229.28285" r="7.6" fill="rgb(0,255,0)" />
<circle cx="344.4059" cy="222.66441" r="7.15" fill="rgb(0,255,0)" />
<circle cx="299.56" cy="243.38156" r="6.75" fill="rgb(0,255,0)" />
<circle cx="349.45398" cy="251.80455" r="6.15" fill="rgb(0,255,0)" />
<circle cx="299.89398" cy="258.42297" r="6.1" fill="rgb(0,255,0)" />
<circle cx="345.60608" cy="281.48465" r="6.0" fill="rgb(0,255,0)" />
<circle cx="295.7121" cy="273.06168" r="6.0" fill="rgb(0,255,0)" />
<circle cx="332.99924" cy="309.01865" r="5.7" fill="rgb(0,255,0)" />
<circle cx="287.28714" cy="285.95697" r="5.45" fill="rgb(0,255,0)" />
<circle cx="312.57248" cy="331.8526" r="5.35" fill="rgb(0,255,0)" />
<circle cx="275.28534" cy="295.89563" r="5.15" fill="rgb(0,255,0)" />
<circle cx="285.99957" cy="347.80133" r="5.0" fill="rgb(0,255,0)" />
<circle cx="260.71423" cy="301.9057" r="4.95" fill="rgb(0,255,0)" />
<circle cx="255.55302" cy="355.2566" r="4.8" fill="rgb(0,255,0)" />
<circle cx="244.83879" cy="303.3509" r="4.75" fill="rgb(0,255,0)" />
<circle cx="223.91019" cy="353.34717" r="4.7" fill="rgb(0,255,0)" />
<circle cx="229.0714" cy="299.99628" r="4.7" fill="rgb(0,255,0)" />
<circle cx="193.91777" cy="342.03503" r="4.7" fill="rgb(0,255,0)" />
<circle cx="214.84637" cy="292.03876" r="4.6" fill="rgb(0,255,0)" />
<circle cx="168.33583" cy="322.13733" r="4.55" fill="rgb(0,255,0)" />
<circle cx="203.48946" cy="280.09857" r="4.55" fill="rgb(0,255,0)" />
<circle cx="149.58395" cy="295.27063" r="4.5" fill="rgb(0,255,0)" />
<circle cx="196.0945" cy="265.17206" r="4.45" fill="rgb(0,255,0)" />
<circle cx="139.51315" cy="263.72098" r="4.45" fill="rgb(0,255,0)" />
<circle cx="193.41866" cy="248.5489" r="4.4" fill="rgb(0,255,0)" />
<circle cx="139.22478" cy="230.24979" r="4.35" fill="rgb(0,255,0)" />
<circle cx="195.80612" cy="231.70088" r="4.25" fill="rgb(0,255,0)" />
<circle cx="148.95412" cy="197.85234" r="4.15" fill="rgb(0,255,0)" />
<circle cx="203.148" cy="216.15146" r="4.15" fill="rgb(0,255,0)" />
<circle cx="168.03067" cy="169.48962" r="4.15" fill="rgb(0,255,0)" />
<circle cx="214.88266" cy="203.33817" r="4.15" fill="rgb(0,255,0)" />
<circle cx="194.92026" cy="147.81793" r="4.15" fill="rgb(0,255,0)" />
<circle cx="230.0376" cy="194.47977" r="4.1" fill="rgb(0,255,0)" />
<circle cx="227.347" cy="134.94058" r="4.05" fill="rgb(0,255,0)" />
<circle cx="247.3094" cy="190.46082" r="4.05" fill="rgb(0,255,0)" />
<circle cx="262.48523" cy="132.20511" r="4.05" fill="rgb(0,255,0)" />
<circle cx="265.1758" cy="191.7443" r="4.05" fill="rgb(0,255,0)" />
<circle cx="297.2056" cy="140.06525" r="4.0" fill="rgb(0,255,0)" />
<circle cx="282.0298" cy="198.32095" r="4.0" fill="rgb(0,255,0)" />
<circle cx="328.35388" cy="158.02168" r="3.9" fill="rgb(0,255,0)" />
<circle cx="296.3241" cy="209.70073" r="3.85" fill="rgb(0,255,0)" />
<circle cx="353.03726" cy="184.64859" r="3.85" fill="rgb(0,255,0)" />
<circle cx="306.71317" cy="224.94785" r="3.8" fill="rgb(0,255,0)" />
<circle cx="368.8927" cy="217.70503" r="3.8" fill="rgb(0,255,0)" />
<circle cx="312.17953" cy="242.75719" r="3.8" fill="rgb(0,255,0)" />
<circle cx="374.31216" cy="254.32292" r="3.8" fill="rgb(0,255,0)" />
<circle cx="312.13263" cy="261.56573" r="3.75" fill="rgb(0,255,0)" />
<circle cx="368.6034" cy="291.25552" r="3.75" fill="rgb(0,255,0)" />
<circle cx="306.47076" cy="279.6898" r="3.7" fill="rgb(0,255,0)" />
<circle cx="352.0702" cy="325.16553" r="3.65" fill="rgb(0,255,0)" />
<circle cx="295.59943" cy="295.47574" r="3.65" fill="rgb(0,255,0)" />
<circle cx="326.00394" cy="352.9262" r="3.65" fill="rgb(0,255,0)" />
<circle cx="280.4045" cy="307.45047" r="3.65" fill="rgb(0,255,0)" />
<circle cx="292.58472" cy="371.9097" r="3.65" fill="rgb(0,255,0)" />
<circle cx="262.1802" cy="314.45923" r="3.6" fill="rgb(0,255,0)" />
<circle cx="254.69965" cy="380.23517" r="3.6" fill="rgb(0,255,0)" />
<circle cx="242.51944" cy="315.77594" r="3.6" fill="rgb(0,255,0)" />
<circle cx="215.69398" cy="376.95294" r="3.6" fill="rgb(0,255,0)" />
<circle cx="223.17455" cy="311.177" r="3.6" fill="rgb(0,255,0)" />
<circle cx="179.07562" cy="362.14792" r="3.55" fill="rgb(0,255,0)" />
<circle cx="205.9011" cy="300.97092" r="3.55" fill="rgb(0,255,0)" />
<circle cx="148.19975" cy="336.9507" r="3.55" fill="rgb(0,255,0)" />
<circle cx="192.29866" cy="285.9798" r="3.55" fill="rgb(0,255,0)" />
<circle cx="125.96152" cy="303.45355" r="3.55" fill="rgb(0,255,0)" />
<circle cx="183.66286" cy="267.47375" r="3.55" fill="rgb(0,255,0)" />
<circle cx="114.52525" cy="264.53772" r="3.55" fill="rgb(0,255,0)" />
<circle cx="180.8624" cy="247.06396" r="3.5" fill="rgb(0,255,0)" />
<circle cx="115.1152" cy="223.62607" r="3.5" fill="rgb(0,255,0)" />
<circle cx="184.2528" cy="226.5621" r="3.45" fill="rgb(0,255,0)" />
<circle cx="127.88806" cy="184.38196" r="3.45" fill="rgb(0,255,0)" />
<circle cx="193.63525" cy="207.81985" r="3.45" fill="rgb(0,255,0)" />
<circle cx="151.90031" cy="150.38135" r="3.4" fill="rgb(0,255,0)" />
<circle cx="208.26506" cy="192.5615" r="3.4" fill="rgb(0,255,0)" />
<circle cx="185.17485" cy="124.78694" r="3.4" fill="rgb(0,255,0)" />
<circle cx="226.90979" cy="182.22545" r="3.4" fill="rgb(0,255,0)" />
<circle cx="224.86255" cy="110.054565" r="3.4" fill="rgb(0,255,0)" />
<circle cx="247.95276" cy="177.82912" r="3.4" fill="rgb(0,255,0)" />
<circle cx="267.48584" cy="107.69862" r="3.35" fill="rgb(0,255,0)" />
<circle cx="269.53308" cy="179.8695" r="3.35" fill="rgb(0,255,0)" />
<circle cx="309.2433" cy="118.13907" r="3.35" fill="rgb(0,255,0)" />
<circle cx="289.7102" cy="188.26956" r="3.35" fill="rgb(0,255,0)" />
<circle cx="346.3486" cy="140.6452" r="3.35" fill="rgb(0,255,0)" />
<circle cx="306.6384" cy="202.37564" r="3.3" fill="rgb(0,255,0)" />
<circle cx="375.3739" cy="173.3829" r="3.3" fill="rgb(0,255,0)" />
<circle cx="318.73547" cy="221.00726" r="3.3" fill="rgb(0,255,0)" />
<circle cx="393.56598" cy="213.56271" r="3.3" fill="rgb(0,255,0)" />
<circle cx="324.8305" cy="242.55545" r="3.25" fill="rgb(0,255,0)" />
<circle cx="399.10678" cy="257.67697" r="3.25" fill="rgb(0,255,0)" />
<circle cx="324.27628" cy="265.12152" r="3.25" fill="rgb(0,255,0)" />
<circle cx="391.29272" cy="301.80585" r="3.25" fill="rgb(0,255,0)" />
<circle cx="317.01645" cy="286.68433" r="3.25" fill="rgb(0,255,0)" />
<circle cx="370.61646" cy="341.96564" r="3.25" fill="rgb(0,255,0)" />
<circle cx="303.6" cy="305.2813" r="3.25" fill="rgb(0,255,0)" />
<circle cx="338.74106" cy="374.46838" r="3.25" fill="rgb(0,255,0)" />
<circle cx="285.14105" cy="319.18707" r="3.2" fill="rgb(0,255,0)" />
<circle cx="298.36795" cy="396.26025" r="3.2" fill="rgb(0,255,0)" />
<circle cx="263.2269" cy="327.07318" r="3.2" fill="rgb(0,255,0)" />
<circle cx="253.00862" cy="405.20776" r="3.2" fill="rgb(0,255,0)" />
<circle cx="239.78172" cy="328.13458" r="3.2" fill="rgb(0,255,0)" />
<circle cx="206.6794" cy="400.30505" r="3.2" fill="rgb(0,255,0)" />
<circle cx="216.89767" cy="322.17047" r="3.15" fill="rgb(0,255,0)" />
<circle cx="163.54588" cy="381.7823" r="3.15" fill="rgb(0,255,0)" />
<circle cx="196.64821" cy="309.61182" r="3.15" fill="rgb(0,255,0)" />
<circle cx="127.54844" cy="351.10355" r="3.15" fill="rgb(0,255,0)" />
<circle cx="180.90024" cy="291.49173" r="3.1" fill="rgb(0,255,0)" />
<circle cx="102.04238" cy="310.85306" r="3.1" fill="rgb(0,255,0)" />
<circle cx="171.14215" cy="269.36133" r="3.05" fill="rgb(0,255,0)" />
</svg>
