<?xml version="1.0" encoding="UTF-8" standalone="no"?>
<!DOCTYPE svg PUBLIC "-//W3C//DTD SVG 1.1//EN" "http://www.w3.org/Graphics/SVG/1.1/DTD/svg11.dtd">
<svg width="500" height="500" viewBox="0 0 500 500" version="1.1" xmlns="http://www.w3.org/2000/svg">
<rect x="0" y="0" width="500" height="500" style="fill:white;stroke:purple;stroke-width:4"/>
<circle cx="250.0" cy="250.0" r="115.45" fill="rgb(0,255,0)" />
<circle cx="250.0995" cy="250.00998" r="27.0" fill="rgb(0,255,0)" />
<circle cx="250.199" cy="250.01996" r="25.5" fill="rgb(0,255,0)" />
<circle cx="250.29851" cy="250.02994" r="23.45" fill="rgb(0,255,0)" />
<circle cx="250.39801" cy="250.03992" r="23.0" fill="rgb(0,255,0)" />
<circle cx="250.49751" cy="250.0499" r="15.65" fill="rgb(0,255,0)" />
<circle cx="250.59702" cy="250.05988" r="14.75" fill="rgb(0,255,0)" />
<circle cx="250.69652" cy="250.06985" r="14.2" fill="rgb(0,255,0)" />
<circle cx="250.79602" cy="250.07983" r="14.05" fill="rgb(0,255,0)" />
<circle cx="250.89552" cy="250.08981" r="13.5" fill="rgb(0,255,0)" />
<circle cx="250.99503" cy="250.0998" r="12.65" fill="rgb(0,255,0)" />
<circle cx="251.09453" cy="250.10977" r="11.0" fill="rgb(0,255,0)" />
<circle cx="251.19403" cy="250.11975" r="10.9" fill="rgb(0,255,0)" />
<circle cx="251.29353" cy="250.12973" r="9.85" fill="rgb(0,255,0)" />
<circle cx="251.39304" cy="250.13971" r="9.45" fill="rgb(0,255,0)" />
<circle cx="251.49254" cy="250.14969" r="8.95" fill="rgb(0,255,0)" />
<circle cx="251.59204" cy="250.15967" r="8.55" fill="rgb(0,255,0)" />
<circle cx="251.69154" cy="250.16965" r="8.35" fill="rgb(0,255,0)" />
<circle cx="251.79105" cy="250.17963" r="8.05" fill="rgb(0,255,0)" />
<circle cx="251.89055" cy="250.1896" r="7.6" fill="rgb(0,255,0)" />
<circle cx="251.99005" cy="250.19958" r="7.6" fill="rgb(0,255,0)" />
<circle cx="252.08955" cy="250.20956" r="7.15" fill="rgb(0,255,0)" />
<circle cx="252.18906" cy="250.21954" r="6.75" fill="rgb(0,255,0)" />
<circle cx="252.28856" cy="250.22952" r="6.15" fill="rgb(0,255,0)" />
<circle cx="252.38806" cy="250.2395" r="6.1" fill="rgb(0,255,0)" />
<circle cx="252.48756" cy="250.24948" r="6.0" fill="rgb(0,255,0)" />
<circle cx="252.58707" cy="250.25946" r="6.0" fill="rgb(0,255,0)" />
<circle cx="252.68657" cy="250.26944" r="5.7" fill="rgb(0,255,0)" />
<circle cx="252.78607" cy="250.27942" r="5.45" fill="rgb(0,255,0)" />
<circle cx="252.88557" cy="250.2894" r="5.35" fill="rgb(0,255,0)" />
<circle cx="252.98508" cy="250.29938" r="5.15" fill="rgb(0,255,0)" />
<circle cx="253.08458" cy="250.30936" r="5.0" fill="rgb(0,255,0)" />
<circle cx="253.18408" cy="250.31934" r="4.95" fill="rgb(0,255,0)" />
<circle cx="253.28358" cy="250.32932" r="4.8" fill="rgb(0,255,0)" />
<circle cx="253.38309" cy="250.3393" r="4.75" fill="rgb(0,255,0)" />
<circle cx="253.48259" cy="250.34927" r="4.7" fill="rgb(0,255,0)" />
<circle cx="253.58209" cy="250.35925" r="4.7" fill="rgb(0,255,0)" />
<circle cx="253.6816" cy="250.36923" r="4.7" fill="rgb(0,255,0)" />
<circle cx="253.7811" cy="250.37921" r="4.6" fill="rgb(0,255,0)" />
<circle cx="253.8806" cy="250.38919" r="4.55" fill="rgb(0,255,0)" />
<circle cx="253.9801" cy="250.39917" r="4.55" fill="rgb(0,255,0)" />
<circle cx="254.0796" cy="250.40915" r="4.5" fill="rgb(0,255,0)" />
<circle cx="254.17911" cy="250.41913" r="4.45" fill="rgb(0,255,0)" />
<circle cx="254.27861" cy="250.42911" r="4.45" fill="rgb(0,255,0)" />
<circle cx="254.37811" cy="250.43909" r="4.4" fill="rgb(0,255,0)" />
<circle cx="254.47762" cy="250.44907" r="4.35" fill="rgb(0,255,0)" />
<circle cx="254.57712" cy="250.45905" r="4.25" fill="rgb(0,255,0)" />
<circle cx="254.67662" cy="250.46902" r="4.15" fill="rgb(0,255,0)" />
<circle cx="254.77612" cy="250.479" r="4.15" fill="rgb(0,255,0)" />
<circle cx="254.87563" cy="250.48898" r="4.15" fill="rgb(0,255,0)" />
<circle cx="254.97513" cy="250.49896" r="4.15" fill="rgb(0,255,0)" />
<circle cx="255.07463" cy="250.50894" r="4.15" fill="rgb(0,255,0)" />
<circle cx="255.17413" cy="250.51892" r="4.1" fill="rgb(0,255,0)" />
<circle cx="255.27364" cy="250.5289" r="4.05" fill="rgb(0,255,0)" />
<circle cx="255.37314" cy="250.53888" r="4.05" fill="rgb(0,255,0)" />
<circle cx="255.47264" cy="250.54886" r="4.05" fill="rgb(0,255,0)" />
<circle cx="255.57214" cy="250.55884" r="4.05" fill="rgb(0,255,0)" />
<circle cx="255.67165" cy="250.56882" r="4.0" fill="rgb(0,255,0)" />
<circle cx="255.77115" cy="250.5788" r="4.0" fill="rgb(0,255,0)" />
<circle cx="255.87065" cy="250.58878" r="3.9" fill="rgb(0,255,0)" />
<circle cx="255.97015" cy="250.59875" r="3.85" fill="rgb(0,255,0)" />
<circle cx="256.06964" cy="250.60873" r="3.85" fill="rgb(0,255,0)" />
<circle cx="256.16913" cy="250.61871" r="3.8" fill="rgb(0,255,0)" />
<circle cx="256.26862" cy="250.6287" r="3.8" fill="rgb(0,255,0)" />
<circle cx="256.3681" cy="250.63867" r="3.8" fill="rgb(0,255,0)" />
<circle cx="256.4676" cy="250.64865" r="3.8" fill="rgb(0,255,0)" />
<circle cx="256.56708" cy="250.65863" r="3.75" fill="rgb(0,255,0)" />
<circle cx="256.66656" cy="250.66861" r="3.75" fill="rgb(0,255,0)" />
<circle cx="256.76605" cy="250.67859" r="3.7" fill="rgb(0,255,0)" />
<circle cx="256.86554" cy="250.68857" r="3.65" fill="rgb(0,255,0)" />
<circle cx="256.96503" cy="250.69855" r="3.65" fill="rgb(0,255,0)" />
<circle cx="257.0645" cy="250.70853" r="3.65" fill="rgb(0,255,0)" />
<circle cx="257.164" cy="250.7185" r="3.65" fill="rgb(0,255,0)" />
<circle cx="257.2635" cy="250.72849" r="3.65" fill="rgb(0,255,0)" />
<circle cx="257.36298" cy="250.73846" r="3.6" fill="rgb(0,255,0)" />
<circle cx="257.46246" cy="250.74844" r="3.6" fill="rgb(0,255,0)" />
<circle cx="257.56195" cy="250.75842" r="3.6" fill="rgb(0,255,0)" />
<circle cx="257.66144" cy="250.7684" r="3.6" fill="rgb(0,255,0)" />
<circle cx="257.76093" cy="250.77838" r="3.6" fill="rgb(0,255,0)" />
<circle cx="257.8604" cy="250.78836" r="3.55" fill="rgb(0,255,0)" />
<circle cx="257.9599" cy="250.79834" r="3.55" fill="rgb(0,255,0)" />
<circle cx="258.0594" cy="250.80832" r="3.55" fill="rgb(0,255,0)" />
<circle cx="258.15887" cy="250.8183" r="3.55" fill="rgb(0,255,0)" />
<circle cx="258.25836" cy="250.82828" r="3.55" fill="rgb(0,255,0)" />
<circle cx="258.35785" cy="250.83826" r="3.55" fill="rgb(0,255,0)" />
<circle cx="258.45734" cy="250.84824" r="3.55" fill="rgb(0,255,0)" />
<circle cx="258.55682" cy="250.85822" r="3.5" fill="rgb(0,255,0)" />
<circle cx="258.6563" cy="250.8682" r="3.5" fill="rgb(0,255,0)" />
<circle cx="258.7558" cy="250.87817" r="3.45" fill="rgb(0,255,0)" />
<circle cx="258.8553" cy="250.88815" r="3.45" fill="rgb(0,255,0)" />
<circle cx="258.95477" cy="250.89813" r="3.45" fill="rgb(0,255,0)" />
<circle cx="259.05426" cy="250.90811" r="3.4" fill="rgb(0,255,0)" />
<circle cx="259.15375" cy="250.91809" r="3.4" fill="rgb(0,255,0)" />
<circle cx="259.25323" cy="250.92807" r="3.4" fill="rgb(0,255,0)" />
<circle cx="259.35272" cy="250.93805" r="3.4" fill="rgb(0,255,0)" />
<circle cx="259.4522" cy="250.94803" r="3.4" fill="rgb(0,255,0)" />
<circle cx="259.5517" cy="250.95801" r="3.4" fill="rgb(0,255,0)" />
<circle cx="259.65118" cy="250.96799" r="3.35" fill="rgb(0,255,0)" />
<circle cx="259.75067" cy="250.97797" r="3.35" fill="rgb(0,255,0)" />
<circle cx="259.85016" cy="250.98795" r="3.35" fill="rgb(0,255,0)" />
<circle cx="259.94965" cy="250.99792" r="3.35" fill="rgb(0,255,0)" />
<circle cx="260.04913" cy="251.0079" r="3.35" fill="rgb(0,255,0)" />
<circle cx="260.14862" cy="251.01788" r="3.3" fill="rgb(0,255,0)" />
<circle cx="260.2481" cy="251.02786" r="3.3" fill="rgb(0,255,0)" />
<circle cx="260.3476" cy="251.03784" r="3.3" fill="rgb(0,255,0)" />
<circle cx="260.44708" cy="251.04782" r="3.3" fill="rgb(0,255,0)" />
<circle cx="260.54657" cy="251.0578" r="3.25" fill="rgb(0,255,0)" />
<circle cx="260.64606" cy="251.06778" r="3.25" fill="rgb(0,255,0)" />
<circle cx="260.74554" cy="251.07776" r="3.25" fill="rgb(0,255,0)" />
<circle cx="260.84503" cy="251.08774" r="3.25" fill="rgb(0,255,0)" />
<circle cx="260.94452" cy="251.09772" r="3.25" fill="rgb(0,255,0)" />
<circle cx="261.044" cy="251.1077" r="3.25" fill="rgb(0,255,0)" />
<circle cx="261.1435" cy="251.11768" r="3.25" fill="rgb(0,255,0)" />
<circle cx="261.24298" cy="251.12766" r="3.25" fill="rgb(0,255,0)" />
<circle cx="261.34247" cy="251.13763" r="3.2" fill="rgb(0,255,0)" />
<circle cx="261.44196" cy="251.14761" r="3.2" fill="rgb(0,255,0)" />
<circle cx="261.54144" cy="251.1576" r="3.2" fill="rgb(0,255,0)" />
<circle cx="261.64093" cy="251.16757" r="3.2" fill="rgb(0,255,0)" />
<circle cx="261.74042" cy="251.17755" r="3.2" fill="rgb(0,255,0)" />
<circle cx="261.8399" cy="251.18753" r="3.2" fill="rgb(0,255,0)" />
<circle cx="261.9394" cy="251.19751" r="3.15" fill="rgb(0,255,0)" />
<circle cx="262.03888" cy="251.20749" r="3.15" fill="rgb(0,255,0)" />
<circle cx="262.13837" cy="251.21747" r="3.15" fill="rgb(0,255,0)" />
<circle cx="262.23785" cy="251.22745" r="3.15" fill="rgb(0,255,0)" />
<circle cx="262.33734" cy="251.23743" r="3.1" fill="rgb(0,255,0)" />
<circle cx="262.43683" cy="251.2474" r="3.1" fill="rgb(0,255,0)" />
<circle cx="262.53632" cy="251.25739" r="3.05" fill="rgb(0,255,0)" />
</svg>
