<?xml version="1.0" encoding="UTF-8" standalone="no"?>
<!DOCTYPE svg PUBLIC "-//W3C//DTD SVG 1.1//EN" "http://www.w3.org/Graphics/SVG/1.1/DTD/svg11.dtd">
<svg width="500" height="500" viewBox="0 0 500 500" version="1.1" xmlns="http://www.w3.org/2000/svg">
<rect x="0" y="0" width="500" height="500" style="fill:white;stroke:purple;stroke-width:4"/>
<circle cx="250.0" cy="250.0" r="115.45" fill="rgb(176,112,178)" />
<circle cx="208.17484" cy="388.0004" r="27.0" fill="rgb(242,178,2)" />
<circle cx="156.16722" cy="364.39664" r="25.5" fill="rgb(242,66,193)" />
<circle cx="264.47302" cy="389.46765" r="23.45" fill="rgb(187,228,26)" />
<circle cx="116.917114" cy="321.81824" r="23.0" fill="rgb(43,134,186)" />
<circle cx="368.2517" cy="307.02005" r="15.65" fill="rgb(255,124,105)" />
<circle cx="337.7171" cy="351.95438" r="14.75" fill="rgb(123,33,156)" />
<circle cx="97.07698" cy="266.56714" r="14.2" fill="rgb(128,35,168)" />
<circle cx="95.73378" cy="236.79738" r="14.05" fill="rgb(127,190,80)" />
<circle cx="100.36257" cy="207.15659" r="13.5" fill="rgb(226,108,83)" />
<circle cx="378.72223" cy="254.52275" r="12.65" fill="rgb(228,73,126)" />
<circle cx="355.44202" cy="179.92326" r="11.0" fill="rgb(79,254,72)" />
<circle cx="368.08362" cy="202.87172" r="10.9" fill="rgb(163,36,141)" />
<circle cx="158.31062" cy="164.41835" r="9.85" fill="rgb(118,104,10)" />
<circle cx="143.89587" cy="183.85687" r="9.45" fill="rgb(130,47,211)" />
<circle cx="133.71515" cy="205.59058" r="8.95" fill="rgb(66,200,118)" />
<circle cx="176.44856" cy="148.0973" r="8.55" fill="rgb(102,141,96)" />
<circle cx="197.63974" cy="135.60349" r="8.35" fill="rgb(50,137,211)" />
<circle cx="128.10237" cy="228.7193" r="8.05" fill="rgb(4,130,60)" />
<circle cx="221.07968" cy="127.50345" r="7.6" fill="rgb(212,252,155)" />
<circle cx="245.85985" cy="124.19522" r="7.6" fill="rgb(195,182,220)" />
<circle cx="127.20407" cy="252.30222" r="7.15" fill="rgb(227,53,73)" />
<circle cx="271.00287" cy="125.88946" r="6.75" fill="rgb(184,58,36)" />
<circle cx="130.97665" cy="275.39612" r="6.15" fill="rgb(62,159,245)" />
<circle cx="295.50098" cy="132.59792" r="6.1" fill="rgb(34,218,138)" />
<circle cx="318.35657" cy="144.12978" r="6.0" fill="rgb(229,254,193)" />
<circle cx="338.62262" cy="160.09627" r="6.0" fill="rgb(114,5,4)" />
<circle cx="375.97382" cy="228.0651" r="5.7" fill="rgb(255,132,170)" />
<circle cx="376.14026" cy="281.19812" r="5.45" fill="rgb(213,174,132)" />
<circle cx="355.2951" cy="330.9359" r="5.35" fill="rgb(10,122,57)" />
<circle cx="316.15753" cy="369.1865" r="5.15" fill="rgb(35,7,50)" />
<circle cx="104.25923" cy="295.2826" r="5.0" fill="rgb(49,38,93)" />
<circle cx="139.19128" cy="297.09314" r="4.95" fill="rgb(145,57,88)" />
<circle cx="110.85734" cy="178.8387" r="4.8" fill="rgb(95,195,52)" />
<circle cx="126.8742" cy="153.0003" r="4.75" fill="rgb(221,240,140)" />
<circle cx="147.84215" cy="130.71336" r="4.7" fill="rgb(73,238,113)" />
<circle cx="172.98312" cy="112.920845" r="4.7" fill="rgb(90,113,54)" />
<circle cx="201.34076" cy="100.39696" r="4.7" fill="rgb(238,108,117)" />
<circle cx="231.8166" cy="93.713684" r="4.6" fill="rgb(22,158,126)" />
<circle cx="291.42627" cy="381.8832" r="4.55" fill="rgb(121,224,101)" />
<circle cx="263.2127" cy="93.215096" r="4.55" fill="rgb(251,138,152)" />
<circle cx="294.27863" cy="99.00053" r="4.5" fill="rgb(141,130,164)" />
<circle cx="323.76132" cy="110.91745" r="4.45" fill="rgb(143,1,141)" />
<circle cx="350.45563" cy="128.56445" r="4.45" fill="rgb(52,59,206)" />
<circle cx="373.2535" cy="151.30429" r="4.4" fill="rgb(247,218,8)" />
<circle cx="391.18994" cy="178.28665" r="4.35" fill="rgb(68,155,180)" />
<circle cx="403.48364" cy="208.47983" r="4.25" fill="rgb(166,110,67)" />
<circle cx="409.57095" cy="240.71007" r="4.15" fill="rgb(92,192,107)" />
<circle cx="409.13107" cy="273.70718" r="4.15" fill="rgb(163,78,220)" />
<circle cx="402.10205" cy="306.15463" r="4.15" fill="rgb(252,114,54)" />
<circle cx="388.6865" cy="336.74197" r="4.15" fill="rgb(58,42,216)" />
<circle cx="369.34644" cy="364.2179" r="4.15" fill="rgb(98,215,192)" />
<circle cx="344.78793" cy="387.44125" r="4.1" fill="rgb(153,197,84)" />
<circle cx="315.93546" cy="405.42844" r="4.05" fill="rgb(8,112,130)" />
<circle cx="283.89725" cy="417.39493" r="4.05" fill="rgb(63,231,5)" />
<circle cx="249.92276" cy="422.7892" r="4.05" fill="rgb(164,173,37)" />
<circle cx="215.354" cy="421.31775" r="4.05" fill="rgb(51,68,39)" />
<circle cx="181.57251" cy="412.9598" r="4.0" fill="rgb(104,81,39)" />
<circle cx="149.94414" cy="397.97147" r="4.0" fill="rgb(87,254,100)" />
<circle cx="121.763855" cy="376.87842" r="3.9" fill="rgb(1,123,106)" />
<circle cx="98.20275" cy="350.458" r="3.85" fill="rgb(223,245,76)" />
<circle cx="80.259445" cy="319.7106" r="3.85" fill="rgb(229,177,157)" />
<circle cx="68.717926" cy="285.822" r="3.8" fill="rgb(43,160,114)" />
<circle cx="64.11354" cy="250.11758" r="3.8" fill="rgb(249,231,205)" />
<circle cx="66.70867" cy="214.01065" r="3.8" fill="rgb(250,78,17)" />
<circle cx="76.47912" cy="178.94638" r="3.8" fill="rgb(70,49,125)" />
<circle cx="93.11192" cy="146.34401" r="3.75" fill="rgb(75,209,221)" />
<circle cx="116.01476" cy="117.53941" r="3.75" fill="rgb(164,42,165)" />
<circle cx="144.33676" cy="93.73041" r="3.7" fill="rgb(39,63,108)" />
<circle cx="176.99995" cy="75.92702" r="3.65" fill="rgb(234,251,167)" />
<circle cx="212.74017" cy="64.90878" r="3.65" fill="rgb(114,102,165)" />
<circle cx="250.15598" cy="61.19092" r="3.65" fill="rgb(15,188,49)" />
<circle cx="287.76355" cy="65.00073" r="3.65" fill="rgb(184,144,135)" />
<circle cx="324.0556" cy="76.26539" r="3.65" fill="rgb(218,255,47)" />
<circle cx="357.5617" cy="94.6117" r="3.6" fill="rgb(61,235,226)" />
<circle cx="386.9079" cy="119.37796" r="3.6" fill="rgb(251,171,224)" />
<circle cx="410.87296" cy="149.63753" r="3.6" fill="rgb(198,234,107)" />
<circle cx="428.43918" cy="184.23338" r="3.6" fill="rgb(161,247,10)" />
<circle cx="438.83542" cy="221.82227" r="3.6" fill="rgb(157,44,151)" />
<circle cx="441.5706" cy="260.92682" r="3.55" fill="rgb(133,84,69)" />
<circle cx="436.45636" cy="299.99356" r="3.55" fill="rgb(167,74,70)" />
<circle cx="423.61786" cy="337.4547" r="3.55" fill="rgb(167,116,184)" />
<circle cx="403.4917" cy="371.79105" r="3.55" fill="rgb(6,154,201)" />
<circle cx="376.81174" cy="401.5935" r="3.55" fill="rgb(190,204,218)" />
<circle cx="344.5824" cy="425.6209" r="3.55" fill="rgb(123,240,62)" />
<circle cx="308.04108" cy="442.85165" r="3.55" fill="rgb(200,209,201)" />
<circle cx="134.47426" cy="345.1504" r="3.5" fill="rgb(244,193,71)" />
<circle cx="268.6107" cy="452.52692" r="3.5" fill="rgb(59,1,134)" />
<circle cx="151.44615" cy="316.5564" r="3.45" fill="rgb(34,29,95)" />
<circle cx="227.84427" cy="454.1838" r="3.45" fill="rgb(91,132,173)" />
<circle cx="187.36383" cy="447.67688" r="3.45" fill="rgb(218,10,104)" />
<circle cx="148.7958" cy="433.18704" r="3.4" fill="rgb(216,244,246)" />
<circle cx="113.705765" cy="411.21762" r="3.4" fill="rgb(94,189,211)" />
<circle cx="83.53481" cy="382.5771" r="3.4" fill="rgb(198,61,139)" />
<circle cx="59.54049" cy="348.3496" r="3.4" fill="rgb(156,53,248)" />
<circle cx="42.744446" cy="309.85416" r="3.4" fill="rgb(230,23,3)" />
<circle cx="33.889137" cy="268.59363" r="3.4" fill="rgb(57,42,148)" />
<circle cx="33.405296" cy="226.19629" r="3.35" fill="rgb(212,247,50)" />
<circle cx="41.391674" cy="184.35152" r="3.35" fill="rgb(157,143,187)" />
<circle cx="57.60794" cy="144.74242" r="3.35" fill="rgb(28,109,250)" />
<circle cx="81.48114" cy="108.97821" r="3.35" fill="rgb(151,140,165)" />
<circle cx="112.12561" cy="78.52884" r="3.35" fill="rgb(10,170,199)" />
<circle cx="148.37566" cy="54.664597" r="3.3" fill="rgb(32,233,251)" />
<circle cx="188.82979" cy="38.40326" r="3.3" fill="rgb(226,138,9)" />
<circle cx="231.90486" cy="30.466854" r="3.3" fill="rgb(196,16,80)" />
<circle cx="275.89798" cy="31.249935" r="3.3" fill="rgb(147,253,86)" />
<circle cx="319.05386" cy="40.800743" r="3.25" fill="rgb(102,24,193)" />
<circle cx="359.63483" cy="58.8161" r="3.25" fill="rgb(4,63,35)" />
<circle cx="395.99078" cy="84.65042" r="3.25" fill="rgb(184,7,94)" />
<circle cx="426.6263" cy="117.33855" r="3.25" fill="rgb(194,236,15)" />
<circle cx="450.26205" cy="155.63164" r="3.25" fill="rgb(17,245,64)" />
<circle cx="465.8881" cy="198.0448" r="3.25" fill="rgb(119,140,228)" />
<circle cx="472.80692" cy="242.9146" r="3.25" fill="rgb(183,206,146)" />
<circle cx="470.66412" cy="288.46432" r="3.25" fill="rgb(44,24,124)" />
<circle cx="459.4658" cy="332.8743" r="3.2" fill="rgb(29,160,167)" />
<circle cx="439.5813" cy="374.3546" r="3.2" fill="rgb(75,89,2)" />
<circle cx="411.73172" cy="411.2172" r="3.2" fill="rgb(90,21,140)" />
<circle cx="376.96393" cy="441.94455" r="3.2" fill="rgb(144,197,171)" />
<circle cx="336.6114" cy="465.2521" r="3.2" fill="rgb(50,183,25)" />
<circle cx="292.2431" cy="480.14185" r="3.2" fill="rgb(136,127,188)" />
<circle cx="245.6026" cy="485.94482" r="3.15" fill="rgb(70,159,17)" />
<circle cx="198.53952" cy="482.35083" r="3.15" fill="rgb(194,244,179)" />
<circle cx="152.93619" cy="469.4239" r="3.15" fill="rgb(23,122,217)" />
<circle cx="110.63233" cy="447.60294" r="3.15" fill="rgb(153,209,82)" />
<circle cx="73.35092" cy="417.68726" r="3.1" fill="rgb(192,73,113)" />
<circle cx="42.628002" cy="380.80756" r="3.1" fill="rgb(235,65,179)" />
<circle cx="19.749464" cy="338.38324" r="3.05" fill="rgb(112,215,64)" />
</svg>
